HIERARCHY
ROOT joint_0
{
	OFFSET 0.000000 0.000000 0.000000
	CHANNELS 6 Xposition Yposition Zposition Zrotation Yrotation Xrotation 
	JOINT joint_1
	{
		OFFSET 1.363060 -1.794630 0.839290
		CHANNELS 3 Zrotation Yrotation Xrotation
		JOINT joint_2
		{
			OFFSET 2.448110 -6.726130 0.000000
			CHANNELS 3 Zrotation Yrotation Xrotation
			JOINT joint_3
			{
				OFFSET 2.562200 -7.039590 0.000000
				CHANNELS 3 Zrotation Yrotation Xrotation
				JOINT joint_4
				{
					OFFSET 0.157640 -0.433110 2.322550
					CHANNELS 3 Zrotation Yrotation Xrotation
					End Site
					{
						OFFSET 0.000000 0.000000 0.000000
					}
				}
			}
		}
	}
	JOINT joint_5
	{
		OFFSET -1.305520 -1.794630 0.839290
		CHANNELS 3 Zrotation Yrotation Xrotation
		JOINT joint_6
		{
			OFFSET -2.542530 -6.985550 0.000000
			CHANNELS 3 Zrotation Yrotation Xrotation
			JOINT joint_7
			{
				OFFSET -2.568260 -7.056230 0.000000
				CHANNELS 3 Zrotation Yrotation Xrotation
				JOINT joint_8
				{
					OFFSET -0.164730 -0.452590 2.363150
					CHANNELS 3 Zrotation Yrotation Xrotation
					End Site
					{
						OFFSET 0.000000 0.000000 0.000000
					}
				}
			}
		}
	}
	JOINT joint_9
	{
		OFFSET 0.028270 2.035590 -0.193380
		CHANNELS 3 Zrotation Yrotation Xrotation
		JOINT joint_10
		{
			OFFSET 0.056720 2.048850 -0.042750
			CHANNELS 3 Zrotation Yrotation Xrotation
			JOINT joint_11
			{
				OFFSET -0.054170 1.746240 0.172020
				CHANNELS 3 Zrotation Yrotation Xrotation
				JOINT joint_12
				{
					OFFSET 0.104070 1.761360 -0.123970
					CHANNELS 3 Zrotation Yrotation Xrotation
					End Site
					{
						OFFSET 0.000000 0.000000 0.000000
					}
				}
			}
			JOINT joint_13
			{
				OFFSET 3.362410 1.200890 -0.311210
				CHANNELS 3 Zrotation Yrotation Xrotation
				JOINT joint_14
				{
					OFFSET 4.983000 -0.000000 -0.000000
					CHANNELS 3 Zrotation Yrotation Xrotation
					JOINT joint_15
					{
						OFFSET 3.483560 -0.000000 -0.000000
						CHANNELS 3 Zrotation Yrotation Xrotation
						JOINT joint_16
						{
							OFFSET 0.000000 0.000000 0.000000
							CHANNELS 3 Zrotation Yrotation Xrotation
							End Site
							{
								OFFSET 0.000000 0.000000 0.000000
							}
						}
					}
				}
			}
			JOINT joint_17
			{
				OFFSET -3.136600 1.374050 -0.404650
				CHANNELS 3 Zrotation Yrotation Xrotation
				JOINT joint_18
				{
					OFFSET -5.241900 -0.000000 -0.000000
					CHANNELS 3 Zrotation Yrotation Xrotation
					JOINT joint_19
					{
						OFFSET -3.444170 -0.000000 -0.000000
						CHANNELS 3 Zrotation Yrotation Xrotation
						JOINT joint_20
						{
							OFFSET 0.000000 0.000000 0.000000
							CHANNELS 3 Zrotation Yrotation Xrotation
							End Site
							{
								OFFSET 0.000000 0.000000 0.000000
							}
						}
					}
				}
			}
		}
	}
}
MOTION
Frames: 16
Frame Time: 0.031667
0.383414 16.863363 -1.810240 -1.405944 0.763194 0.967095 -20.741130 2.868318 -8.537524 -1.195783 7.161238 18.977117 -2.834932 -1.073091 -10.530769 0.485541 -4.098819 -11.839891 23.582202 0.073764 4.148060 -6.636987 -2.348483 16.695105 -1.065751 -7.400767 -13.858580 -0.340611 4.079392 -8.935165 2.377421 -2.839350 -12.617158 -3.516705 -0.292003 10.393678 2.148009 -9.962171 21.041506 0.534333 -4.014242 11.847327 -37.634707 2.767843 5.502660 25.978488 -31.510150 -22.549465 13.783018 13.327004 -2.440134 -6.934829 0.034594 0.046379 29.581275 18.631401 -5.232405 -31.680746 20.260502 -38.824918 -8.543904 -7.706848 0.724175 6.956931 -0.000991 0.016315 
0.383318 16.859610 -1.817252 -1.379972 0.747692 0.969901 -21.591485 2.161870 -4.953968 -2.332655 3.337181 18.550975 -1.279933 -3.281147 -14.810637 0.272233 -3.265289 -9.028685 33.863521 -6.222996 2.292048 -2.849854 -6.426017 19.028475 0.189592 -2.992032 -10.886080 -0.241041 2.727428 -7.001694 1.368245 -0.883413 -12.454888 -2.540027 -0.007065 13.929815 1.155216 -7.446270 18.792747 1.192171 -4.367449 12.668652 -29.108876 0.563376 7.337522 20.952579 -18.583723 -23.833445 8.507800 5.444792 -0.356543 -6.863377 0.017556 0.043927 29.024818 16.444239 0.002915 -22.536436 18.826561 -36.952929 -11.193017 -9.278295 -2.274703 6.931939 -0.009539 0.008908 
0.359751 16.856756 -1.922252 -1.278687 2.231196 1.264987 -21.546635 4.003953 -6.855152 -2.418952 1.440741 13.241978 -3.711869 -4.095171 -10.024398 0.219482 -2.960166 -8.044350 33.195064 -6.307210 -0.554723 -3.790695 -3.217845 16.352899 -1.951364 -0.841715 -13.562413 -0.249407 -3.033440 8.474108 7.771946 -4.831329 -16.804980 1.670182 -0.597174 14.693133 2.170987 -6.314774 21.026442 2.242615 -4.440570 13.120711 -30.092628 -3.288021 2.227757 16.875304 -25.748574 -25.350901 6.615100 7.030792 -0.093016 -6.841680 0.017540 0.043730 20.680696 15.725158 -4.490979 -30.485050 16.645338 -44.039728 -7.710210 -5.694306 0.007007 6.948177 -0.013898 0.004628 
0.356616 16.846096 -1.948889 -0.875224 1.924792 0.723241 -19.340136 0.955824 -3.646427 -7.364011 6.278146 16.452536 -2.776819 -3.771194 -8.950002 0.209172 -2.853345 -7.710432 31.697543 -3.617197 -0.015587 -13.613610 -4.746594 14.860727 2.497171 9.268601 -10.792554 -0.354158 -3.410476 9.824500 1.694725 -0.125006 -6.330283 0.535773 -1.780228 15.047732 4.286164 -4.959114 18.114840 2.774733 -3.677451 12.053937 -26.183749 -6.196159 2.514810 13.222488 -14.620603 -20.752633 4.624705 3.477325 -1.343441 -6.829636 0.021832 0.045763 16.447421 12.628536 1.566135 -20.269665 19.549695 -40.522630 -17.070889 -9.357586 -0.507292 6.934564 -0.011722 0.007338 
0.352688 16.855104 -1.909324 -1.206381 1.764283 0.913657 -26.560931 4.522051 3.276481 -3.581864 -2.518508 10.066970 -16.613347 -2.250844 -2.971622 0.199393 -2.733475 -7.396042 31.385142 -4.894864 1.693672 -11.221290 -8.754448 17.805064 0.720229 9.256435 -10.984644 -0.243519 -2.909437 8.170767 4.733542 1.417501 -10.507160 1.447585 1.337800 15.117901 4.823400 -8.593363 24.442143 4.207308 -3.498265 11.598922 -17.652634 -2.754337 2.316246 13.914987 -15.604269 -20.435911 1.345573 0.490101 -0.382702 -6.774283 0.024045 0.040135 18.559777 7.972112 1.346975 -24.037548 19.405573 -42.011146 -11.177055 -8.211189 0.209287 6.898995 -0.018753 -0.001121 
0.353326 16.855556 -1.907733 -1.240121 1.724975 0.923689 -22.701560 4.706320 1.706548 -5.427770 2.024441 11.725865 -18.366515 4.307968 -5.129938 0.149712 -2.380631 -6.630296 31.371150 -4.682097 -2.534240 -3.324250 -5.774676 16.059854 5.277047 4.143991 -16.717442 -0.180225 -2.434101 6.760958 1.024981 -2.120665 -8.140635 0.512767 -0.069989 16.269592 4.641231 -4.657801 21.017960 6.611760 -3.612401 11.030546 -19.121626 -7.138244 1.127686 17.059220 -17.969174 -32.089808 10.654528 6.150511 -0.070197 -6.691249 0.021481 0.030673 20.599879 2.355314 4.524054 -20.950633 18.736555 -42.570255 -20.956048 -11.140810 1.160275 6.843989 -0.028555 -0.011439 
0.353497 16.856457 -1.906577 -1.280150 1.729442 0.936999 -22.544847 5.527312 -0.026916 -2.549809 -4.600416 7.112916 -11.282586 10.681052 -10.808756 0.049567 -1.367328 -3.848410 33.879623 -6.819797 0.386995 -11.747204 -1.138090 13.729737 4.725793 3.568878 -13.286912 -0.316444 2.446025 -6.704180 3.069091 0.753553 -16.787897 -2.370350 0.954276 20.735221 4.349481 -6.707253 26.241385 7.077375 -4.011445 9.785557 -17.169419 -1.538142 0.553286 11.301060 -10.286024 -26.282254 10.853591 5.089535 -1.964731 -6.663028 0.022550 0.030210 22.442244 7.546710 6.505656 -20.005321 17.534861 -40.473549 -14.712202 -10.680322 -0.709043 6.811533 -0.034745 -0.018040 
0.354524 16.854355 -1.908769 -1.262170 1.675628 0.897137 -30.429368 3.850774 4.195382 -1.970554 -7.180487 7.787004 -11.492825 5.007109 -6.310340 0.034895 1.219226 3.301458 32.220022 -12.665015 2.046433 -7.847593 -1.641024 15.911646 2.189804 -6.588100 -18.229388 -0.502318 2.469446 -7.134603 3.744812 3.181630 -14.121489 -1.689559 0.799530 17.159574 4.684954 -3.572552 17.464748 6.444566 -3.575349 9.095598 -22.523613 -8.185453 1.672554 16.530094 -13.996660 -28.489156 8.898296 2.268344 -0.222024 -6.714583 0.016765 0.030308 20.946101 3.967287 8.755115 -27.160841 13.898903 -50.984097 -14.261650 -9.452559 0.773113 6.840411 -0.037846 -0.022735 
0.355215 16.853754 -1.910480 -1.258266 1.650171 0.888190 -23.545380 4.740284 -0.523545 -5.768410 -1.800909 9.656920 -13.815616 -0.547808 -14.564347 0.012032 -0.730794 -2.039014 32.485744 -7.272475 5.018402 -8.495730 -2.344074 19.875787 5.120172 -3.283985 -13.480540 -3.808218 -3.808715 7.157813 6.590365 3.319458 -17.674487 -2.344616 -1.087663 11.844835 3.149869 -3.383914 16.964395 5.317097 -3.547437 8.570236 -23.217705 -6.120140 1.432911 13.525504 -10.554295 -23.653464 6.009154 2.087449 3.414163 -6.832022 0.012903 0.032370 21.895864 10.119997 8.669700 -24.569855 14.440456 -50.966642 -12.877171 -7.601072 -0.480975 6.955959 -0.039296 -0.022389 
0.354847 16.854204 -1.912898 -1.277922 1.673580 0.855423 -23.799225 6.585713 -2.542480 -5.411224 -3.412168 17.797833 -3.173148 -3.785184 -12.372589 0.137750 -2.342189 -6.505112 27.939530 -8.479765 7.094197 -5.208864 16.949470 -2.538583 3.810229 -2.196090 -12.632754 -0.448768 -2.895846 8.498415 1.658474 5.004538 -8.269698 -2.655141 2.279531 13.725304 4.217305 -4.185847 12.250654 5.065793 -4.019789 9.988507 -18.803950 -1.369507 2.532725 17.210305 -12.981102 -32.292886 -0.962559 -0.521085 0.187132 -6.930094 0.022259 0.048898 15.332976 4.874183 4.163100 -20.511137 15.685158 -46.628636 -15.163028 -10.395065 -1.200176 7.062865 -0.030540 -0.008634 
0.355467 16.859909 -1.895105 -1.494062 1.709578 1.028775 -14.185879 2.140901 -1.098567 -2.807093 1.545563 8.133618 -8.446257 3.503026 -9.213971 0.076566 -1.750737 -4.765590 26.769371 -4.868624 3.633121 -19.136333 1.881193 2.521784 3.964953 -1.880024 -9.799603 -0.319067 3.145427 -8.504932 3.143287 6.140488 -19.617700 -4.901858 -0.258291 15.004975 3.678210 -4.864557 11.166884 4.574958 -5.707724 8.942587 -9.861507 -1.848458 0.457444 13.400807 -12.182285 -31.792433 12.042890 3.176410 4.605121 -7.088407 0.019254 0.059101 13.635579 7.441438 -2.845597 -25.850356 17.553198 -47.448807 -8.653566 -8.090405 -0.855042 7.293684 -0.031777 -0.002095 
0.355698 16.858559 -1.896486 -1.490068 1.658553 0.979278 -18.980435 1.691874 -2.868800 -11.771547 -8.327630 16.845192 -2.246131 0.679551 -8.500667 0.000262 0.064691 0.182502 28.345258 -9.717687 2.426848 -9.985484 3.678746 7.795417 -0.408641 -6.680567 -11.135657 -0.220661 2.709125 -7.383465 2.621135 0.521301 -12.626737 -1.402338 1.744707 11.977596 2.371228 -5.492288 9.481148 3.962127 -6.365919 8.709850 -13.836479 -2.238355 1.352881 20.339939 -15.816583 -31.372551 2.398330 1.446320 1.291260 -7.190804 0.023185 0.067972 14.041580 6.013714 -2.602402 -19.199776 9.213273 -47.584424 -14.334307 -11.186303 0.684918 7.416694 -0.031393 -0.001074 
0.356209 16.859009 -1.897598 -1.467705 1.612175 0.967268 -21.673373 3.159944 -2.439929 -5.351646 -2.053061 5.382774 -6.963040 7.242847 -11.173930 0.045056 0.975759 2.817433 29.338760 -3.929646 -2.948449 -7.405379 -4.468971 13.304843 -0.858649 -5.310614 -12.126293 -0.256300 -1.918397 6.071874 8.682041 0.782952 -11.015258 -1.635093 -1.581940 10.643797 3.028290 -7.321559 15.637960 3.623066 -6.709672 7.068831 -26.388713 -5.661396 0.172796 16.335572 -11.146904 -27.792939 0.762465 1.026008 -0.259562 -7.267076 0.033470 0.073244 12.244296 12.016168 -1.681992 -23.832906 14.678895 -46.520471 -10.975284 -10.208628 -2.249397 7.500872 -0.032712 0.002717 
0.356011 16.859159 -1.899114 -1.498228 1.643050 0.943425 -14.442060 -0.800022 -3.364432 -8.610284 -5.083268 10.377208 0.309290 3.896298 -10.761123 0.106271 -1.910935 -5.091306 16.134436 -3.500726 1.032753 -13.931871 0.828561 13.732753 1.445136 4.991231 -5.429578 -0.064249 1.503499 -3.969823 2.880791 3.577808 -8.227959 -0.921095 1.660910 9.778694 6.712995 -10.478888 16.460312 3.578890 -6.231519 6.872519 -17.506099 0.513186 5.606396 10.648004 -8.432052 -29.103048 -3.737639 -2.890327 2.777071 -7.303639 0.044953 0.090270 9.232089 7.410581 -0.327945 -9.993684 4.901750 -36.818472 -12.230148 -14.468441 2.873422 7.518885 -0.021282 0.017748 
0.357096 16.857958 -1.897973 -1.507732 1.614423 0.943045 -29.532265 8.083141 -7.559325 0.006116 0.569345 6.851232 -2.260247 -6.560814 -7.848723 0.035735 -1.095463 -2.980373 33.909874 -0.405204 -4.131270 -3.233627 -22.546269 -6.945181 2.399958 8.929433 -12.452475 -0.151285 2.270707 -6.025042 0.530760 4.875690 -10.391776 0.420926 3.288754 15.326913 4.055450 -6.180316 15.261187 3.560844 -6.321920 6.166967 0.835549 0.379375 0.199800 24.461175 -12.378916 -31.648507 11.708282 8.400768 -4.852114 -7.252408 0.039794 0.072597 15.752662 11.490937 -0.451544 -19.181155 7.086359 -46.000305 -9.707941 -15.681613 1.631471 7.465930 -0.026757 0.004000 
0.357464 16.858408 -1.900766 -1.489286 1.570883 0.920987 -20.675384 2.195991 -3.964466 2.235600 3.401782 13.151966 -0.303284 -8.236356 -3.108568 0.041810 1.148188 3.143644 33.783430 0.019518 -4.164775 -6.378790 -1.253122 5.156014 0.667218 4.740613 -10.561992 -0.153300 -2.284091 6.408763 -3.543818 -0.443988 -7.171251 -0.011083 1.216630 12.065555 4.564060 -3.399324 12.534131 3.367916 -5.732152 6.789039 -6.897324 -4.151442 -0.776710 12.989269 -13.876390 -31.405011 0.799711 2.374308 -1.980843 -7.246574 0.038637 0.068330 22.056022 9.806651 1.028091 -11.098344 9.695413 -44.565956 -8.026547 -8.193742 -0.303290 7.441732 -0.029127 0.000090 
